<svg width="46.667" xmlns="http://www.w3.org/2000/svg" height="46.667" id="screenshot-e266ac79-4f7e-805f-8006-a77781a17a0d" viewBox="-198.333 908.667 46.667 46.667" xmlns:xlink="http://www.w3.org/1999/xlink" fill="none" version="1.1"><g id="shape-e266ac79-4f7e-805f-8006-a77781a17a0d"><g class="fills" id="fills-e266ac79-4f7e-805f-8006-a77781a17a0d"><path d="M-174.99996948242188,931.9999389648438C-178.20834350585938,931.9999389648438,-180.95480346679688,930.8576049804688,-183.23959350585938,928.5729370117188C-185.52426147460938,926.2881469726562,-186.66659545898438,923.5416870117188,-186.66659545898438,920.3333129882812C-186.66659545898438,917.1249389648438,-185.52426147460938,914.3784790039062,-183.23959350585938,912.0936889648438C-180.95480346679688,909.8090209960938,-178.20834350585938,908.6666870117188,-174.99996948242188,908.6666870117188C-171.79159545898438,908.6666870117188,-169.04513549804688,909.8090209960938,-166.76034545898438,912.0936889648438C-164.47567749023438,914.3784790039062,-163.33334350585938,917.1249389648438,-163.33334350585938,920.3333129882812C-163.33334350585938,923.5416870117188,-164.47567749023438,926.2881469726562,-166.76034545898438,928.5729370117188C-169.04513549804688,930.8576049804688,-171.79159545898438,931.9999389648438,-174.99996948242188,931.9999389648438ZM-198.33334350585938,955.3333129882812L-198.33334350585938,947.1666870117188C-198.33334350585938,945.5138549804688,-197.90792846679688,943.9948120117188,-197.05722045898438,942.6093139648438C-196.20651245117188,941.2239379882812,-195.07638549804688,940.1666870117188,-193.66659545898438,939.4374389648438C-190.65280151367188,937.9304809570312,-187.59030151367188,936.8003540039062,-184.47909545898438,936.0468139648438C-181.36801147460938,935.2933959960938,-178.20834350585938,934.9166870117188,-174.99996948242188,934.9166870117188C-171.79159545898438,934.9166870117188,-168.63192749023438,935.2933959960938,-165.52084350585938,936.0468139648438C-162.40963745117188,936.8003540039062,-159.34713745117188,937.9304809570312,-156.33334350585938,939.4374389648438C-154.92355346679688,940.1666870117188,-153.79342651367188,941.2239379882812,-152.94271850585938,942.6093139648438C-152.09201049804688,943.9948120117188,-151.66659545898438,945.5138549804688,-151.66659545898438,947.1666870117188L-151.66659545898438,955.3333129882812L-198.33334350585938,955.3333129882812ZM-192.49996948242188,949.4999389648438L-157.49996948242188,949.4999389648438L-157.49996948242188,947.1666870117188C-157.49996948242188,946.6318969726562,-157.63363647460938,946.1458129882812,-157.90097045898438,945.7083129882812C-158.16842651367188,945.2708129882812,-158.52084350585938,944.9304809570312,-158.95834350585938,944.6874389648438C-161.58334350585938,943.3749389648438,-164.23263549804688,942.3905639648438,-166.90621948242188,941.7343139648438C-169.57980346679688,941.0780639648438,-172.27780151367188,940.7499389648438,-174.99996948242188,940.7499389648438C-177.72213745117188,940.7499389648438,-180.42013549804688,941.0780639648438,-183.09371948242188,941.7343139648438C-185.76730346679688,942.3905639648438,-188.41659545898438,943.3749389648438,-191.04159545898438,944.6874389648438C-191.47909545898438,944.9304809570312,-191.83151245117188,945.2708129882812,-192.09896850585938,945.7083129882812C-192.36630249023438,946.1458129882812,-192.49996948242188,946.6318969726562,-192.49996948242188,947.1666870117188L-192.49996948242188,949.4999389648438ZM-174.99996948242188,926.1666870117188C-173.39584350585938,926.1666870117188,-172.02255249023438,925.5953979492188,-170.88021850585938,924.4530639648438C-169.73776245117188,923.3107299804688,-169.16659545898438,921.9374389648438,-169.16659545898438,920.3333129882812C-169.16659545898438,918.7291870117188,-169.73776245117188,917.3558959960938,-170.88021850585938,916.2135620117188C-172.02255249023438,915.0711059570312,-173.39584350585938,914.4999389648438,-174.99996948242188,914.4999389648438C-176.60409545898438,914.4999389648438,-177.97738647460938,915.0711059570312,-179.11972045898438,916.2135620117188C-180.26217651367188,917.3558959960938,-180.83334350585938,918.7291870117188,-180.83334350585938,920.3333129882812C-180.83334350585938,921.9374389648438,-180.26217651367188,923.3107299804688,-179.11972045898438,924.4530639648438C-177.97738647460938,925.5953979492188,-176.60409545898438,926.1666870117188,-174.99996948242188,926.1666870117188ZM-174.99996948242188,920.3333129882812ZM-174.99996948242188,949.4999389648438Z" style="fill: rgb(227, 227, 227);"/></g></g></svg>