<svg width="46.667" xmlns="http://www.w3.org/2000/svg" height="61.667" id="screenshot-e266ac79-4f7e-805f-8006-a77781a17a11" viewBox="-199.333 704.167 46.667 61.667" xmlns:xlink="http://www.w3.org/1999/xlink" fill="none" version="1.1"><g id="shape-e266ac79-4f7e-805f-8006-a77781a17a11"><g class="fills" id="fills-e266ac79-4f7e-805f-8006-a77781a17a11"><path d="M-178.91665649414062,756.5833740234375L-173.08328247070312,756.5833740234375L-173.08328247070312,743.7103881835938L-168.41665649414062,748.643798828125L-164.33328247070312,744.25L-175.99996948242188,731.9166259765625L-187.66665649414062,744.25L-183.51040649414062,748.566650390625L-178.91665649414062,743.7103881835938L-178.91665649414062,756.5833740234375ZM-193.49996948242188,765.8333129882812C-195.10415649414062,765.8333129882812,-196.47738647460938,765.2294921875,-197.61978149414062,764.0219116210938C-198.76211547851562,762.8142700195312,-199.33328247070312,761.362548828125,-199.33328247070312,759.6666259765625L-199.33328247070312,710.3333740234375C-199.33328247070312,708.637451171875,-198.76211547851562,707.1856689453125,-197.61978149414062,705.9781494140625C-196.47738647460938,704.7705078125,-195.10415649414062,704.1666259765625,-193.49996948242188,704.1666259765625L-170.16665649414062,704.1666259765625L-152.66665649414062,722.6666259765625L-152.66665649414062,759.6666259765625C-152.66665649414062,761.362548828125,-153.23782348632812,762.8142700195312,-154.38015747070312,764.0219116210938C-155.52255249023438,765.2294921875,-156.89578247070312,765.8333129882812,-158.49996948242188,765.8333129882812L-193.49996948242188,765.8333129882812ZM-173.08328247070312,725.7499389648438L-173.08328247070312,710.3333740234375L-193.49996948242188,710.3333740234375L-193.49996948242188,759.6666259765625L-158.49996948242188,759.6666259765625L-158.49996948242188,725.7499389648438L-173.08328247070312,725.7499389648438ZM-193.49996948242188,710.3333740234375L-193.49996948242188,725.7499389648438L-193.49996948242188,710.3333740234375L-193.49996948242188,759.6666259765625L-193.49996948242188,710.3333740234375Z" style="fill: rgb(227, 227, 227);"/></g></g></svg>