<svg width="90" xmlns="http://www.w3.org/2000/svg" height="90" id="screenshot-e266ac79-4f7e-805f-8006-a782d869ec33" viewBox="0 0 90 90" xmlns:xlink="http://www.w3.org/1999/xlink" fill="none" version="1.1"><g id="shape-e266ac79-4f7e-805f-8006-a782d869ec33" height="24" width="24" rx="0" ry="0" style="fill: rgb(0, 0, 0);"><g id="shape-e266ac79-4f7e-805f-8006-a782d86a919a" style="display: none;"><g class="fills" id="fills-e266ac79-4f7e-805f-8006-a782d86a919a"><rect width="90" height="90" x="0" transform="matrix(1.000000, 0.000000, 0.000000, 1.000000, 0.000000, 0.000000)" style="fill: rgb(162, 89, 41); fill-opacity: 1;" ry="0" fill="none" rx="0" y="0"/></g></g><g id="shape-e266ac79-4f7e-805f-8006-a782d86b5a9c"><g class="fills" id="fills-e266ac79-4f7e-805f-8006-a782d86b5a9c"><path d="M63.75,82.5L63.75,76.875L73.125,76.875L73.125,74.0625L67.5,74.0625L67.5,68.4375L73.125,68.4375L73.125,65.625L63.75,65.625L63.75,60L75,60C76.0625,60,76.953125,60.359375,77.671875,61.078125C78.390625,61.796875,78.75,62.6875,78.75,63.75L78.75,67.5C78.75,68.5625,78.390625,69.453125,77.671875,70.171875C76.953125,70.890625,76.0625,71.25,75,71.25C76.0625,71.25,76.953125,71.609375,77.671875,72.328125C78.390625,73.046875,78.75,73.9375,78.75,75L78.75,78.75C78.75,79.8125,78.390625,80.703125,77.671875,81.421875C76.953125,82.140625,76.0625,82.5,75,82.5L63.75,82.5ZM63.75,56.25L63.75,45.9375C63.75,44.875,64.109375,43.984375,64.828125,43.265625C65.546875,42.546875,66.4375,42.1875,67.5,42.1875L73.125,42.1875L73.125,39.375L63.75,39.375L63.75,33.75L75,33.75C76.0625,33.75,76.953125,34.109375,77.671875,34.828125C78.390625,35.546875,78.75,36.4375,78.75,37.5L78.75,44.0625C78.75,45.125,78.390625,46.015625,77.671875,46.734375C76.953125,47.453125,76.0625,47.8125,75,47.8125L69.375,47.8125L69.375,50.625L78.75,50.625L78.75,56.25L63.75,56.25ZM69.375,30L69.375,13.125L63.75,13.125L63.75,7.5L75,7.5L75,30L69.375,30ZM11.25,71.25L11.25,63.75L56.25,63.75L56.25,71.25L11.25,71.25ZM11.25,48.75L11.25,41.25L56.25,41.25L56.25,48.75L11.25,48.75ZM11.25,26.25L11.25,18.75L56.25,18.75L56.25,26.25L11.25,26.25Z" style="fill: rgb(162, 89, 41); fill-opacity: 1;"/></g></g></g></svg>