<svg xmlns="http://www.w3.org/2000/svg" id="screenshot-8d97f5ad-645d-804f-8006-a84deece6a96" viewBox="0 0 30 30" xmlns:xlink="http://www.w3.org/1999/xlink" fill="none" version="1.1"><g id="shape-8d97f5ad-645d-804f-8006-a84deece6a96"  rx="0" ry="0" style="fill: rgb(0, 0, 0);"><g id="shape-8d97f5ad-645d-804f-8006-a84deece6a97" style="display: none;"><g class="fills" id="fills-8d97f5ad-645d-804f-8006-a84deece6a97"><rect  x="0" transform="matrix(1.000000, 0.000000, 0.000000, 1.000000, 0.000000, 0.000000)" style="fill: none;" ry="0" fill="none" rx="0" y="0"/></g></g><g id="shape-8d97f5ad-645d-804f-8006-a84deece6a98"><g class="fills" id="fills-8d97f5ad-645d-804f-8006-a84deece6a98"><path d="M11.25,15.625L12.5,15.625L12.5,13.125L13.75,13.125C14.1044921875,13.125,14.400390625,13.00518798828125,14.640625,12.765625C14.880859375,12.5260009765625,15,12.2291259765625,15,11.875L15,10.625C15,10.2708740234375,14.880859375,9.9739990234375,14.640625,9.734375C14.400390625,9.49481201171875,14.1044921875,9.375,13.75,9.375L11.25,9.375L11.25,15.625ZM12.5,11.875L12.5,10.625L13.75,10.625L13.75,11.875L12.5,11.875ZM16.25,15.625L18.75,15.625C19.103515625,15.625,19.4013671875,15.5052490234375,19.640625,15.265625C19.8798828125,15.02606201171875,20,14.7291259765625,20,14.375L20,10.625C20,10.2708740234375,19.8798828125,9.9739990234375,19.640625,9.734375C19.4013671875,9.49481201171875,19.103515625,9.375,18.75,9.375L16.25,9.375L16.25,15.625ZM17.5,14.375L17.5,10.625L18.75,10.625L18.75,14.375L17.5,14.375ZM21.25,15.625L22.5,15.625L22.5,13.125L23.75,13.125L23.75,11.875L22.5,11.875L22.5,10.625L23.75,10.625L23.75,9.375L21.25,9.375L21.25,15.625ZM10,22.5C9.3125,22.5,8.7236328125,22.2552490234375,8.234375,21.765625C7.744140625,21.2760009765625,7.5,20.6875,7.5,20L7.5,5C7.5,4.3125,7.744140625,3.72393798828125,8.234375,3.234375C8.7236328125,2.74481201171875,9.3125,2.5,10,2.5L25,2.5C25.6875,2.5,26.275390625,2.74481201171875,26.765625,3.234375C27.255859375,3.72393798828125,27.5,4.3125,27.5,5L27.5,20C27.5,20.6875,27.255859375,21.2760009765625,26.765625,21.765625C26.275390625,22.2552490234375,25.6875,22.5,25,22.5L10,22.5ZM10,20L25,20L25,5L10,5L10,20ZM5,27.5C4.3125,27.5,3.724609375,27.25518798828125,3.234375,26.765625C2.744140625,26.27606201171875,2.5,25.6875,2.5,25L2.5,7.5L5,7.5L5,25L22.5,25L22.5,27.5L5,27.5ZM10,5L10,20L10,5Z" style="fill: rgb(255, 255, 255); fill-opacity: 1;"/></g></g></g></svg>