<svg width="90" xmlns="http://www.w3.org/2000/svg" height="90" id="screenshot-e266ac79-4f7e-805f-8006-a78433086f7a" viewBox="0 0 90 90" xmlns:xlink="http://www.w3.org/1999/xlink" fill="none" version="1.1"><g id="shape-e266ac79-4f7e-805f-8006-a78433086f7a" height="24" width="24" rx="0" ry="0" style="fill: rgb(0, 0, 0);"><g id="shape-e266ac79-4f7e-805f-8006-a78433086f7d" style="display: none;"><g class="fills" id="fills-e266ac79-4f7e-805f-8006-a78433086f7d"><rect width="90" height="90" x="0" transform="matrix(1.000000, 0.000000, 0.000000, 1.000000, 0.000000, 0.000000)" style="fill: rgb(162, 89, 41); fill-opacity: 1;" ry="0" fill="none" rx="0" y="0"/></g></g><g id="shape-e266ac79-4f7e-805f-8006-a78433086f7e"><g class="fills" id="fills-e266ac79-4f7e-805f-8006-a78433086f7e"><path d="M54.5625,62.06256103515625L41.25,48.75L41.25,30L48.75,30L48.75,45.65625L59.8125,56.71875L54.5625,62.06256103515625ZM41.25,22.5L41.25,15L48.75,15L48.75,22.5L41.25,22.5ZM67.5,48.75L67.5,41.25L75,41.25L75,48.75L67.5,48.75ZM41.25,75L41.25,67.5L48.75,67.5L48.75,75L41.25,75ZM15,48.75L15,41.25L22.5,41.25L22.5,48.75L15,48.75ZM45,82.5C39.8125,82.5,34.9375,81.515625,30.375,79.546875C25.8125,77.578125,21.84375,74.90625,18.46875,71.53118896484375C15.09375,68.15625,12.421875,64.18743896484375,10.453125,59.625C8.484375,55.06256103515625,7.5,50.18756103515625,7.5,45C7.5,39.8125,8.484375,34.9375,10.453125,30.375C12.421875,25.81243896484375,15.09375,21.84375,18.46875,18.46881103515625C21.84375,15.09375,25.8125,12.421875,30.375,10.453125C34.9375,8.484375,39.8125,7.5,45,7.5C50.1875,7.5,55.0625,8.484375,59.625,10.453125C64.1875,12.421875,68.15625,15.09375,71.53125,18.46881103515625C74.90625,21.84375,77.578125,25.81243896484375,79.546875,30.375C81.515625,34.9375,82.5,39.8125,82.5,45C82.5,50.18756103515625,81.515625,55.06256103515625,79.546875,59.625C77.578125,64.18743896484375,74.90625,68.15625,71.53125,71.53118896484375C68.15625,74.90625,64.1875,77.578125,59.625,79.546875C55.0625,81.515625,50.1875,82.5,45,82.5ZM45,75C53.375,75,60.46875,72.09375,66.28125,66.28131103515625C72.09375,60.46875,75,53.37506103515625,75,45C75,36.625,72.09375,29.53125,66.28125,23.71868896484375C60.46875,17.90625,53.375,15,45,15C36.625,15,29.53125,17.90625,23.71875,23.71868896484375C17.90625,29.53125,15,36.625,15,45C15,53.37506103515625,17.90625,60.46875,23.71875,66.28131103515625C29.53125,72.09375,36.625,75,45,75ZM45,45Z" style="fill: rgb(162, 89, 41); fill-opacity: 1;"/></g></g></g></svg>