<svg width="58.333" xmlns="http://www.w3.org/2000/svg" height="52.417" id="screenshot-e266ac79-4f7e-805f-8006-a77781a17a15" viewBox="-204.167 507.25 58.333 52.417" xmlns:xlink="http://www.w3.org/1999/xlink" fill="none" version="1.1"><g id="shape-e266ac79-4f7e-805f-8006-a77781a17a15"><g class="fills" id="fills-e266ac79-4f7e-805f-8006-a77781a17a15"><path d="M-189.58328247070312,516.5L-189.58328247070312,513.4166259765625C-189.58328247070312,511.7208251953125,-189.01211547851562,510.2691650390625,-187.86978149414062,509.0615234375C-186.72738647460938,507.8538818359375,-185.35415649414062,507.25,-183.74996948242188,507.25L-166.24996948242188,507.25C-164.64578247070312,507.25,-163.27255249023438,507.8538818359375,-162.13015747070312,509.0615234375C-160.98782348632812,510.2691650390625,-160.41665649414062,511.7208251953125,-160.41665649414062,513.4166259765625L-160.41665649414062,516.5L-158.37496948242188,516.5C-157.20828247070312,516.5,-156.15103149414062,516.846923828125,-155.20309448242188,517.5406494140625C-154.25515747070312,518.234375,-153.56246948242188,519.120849609375,-153.12496948242188,520.2000122070312L-146.27078247070312,536.8499755859375C-146.12496948242188,537.2611083984375,-146.01559448242188,537.6721801757812,-145.94265747070312,538.0833129882812C-145.86978149414062,538.494384765625,-145.83328247070312,538.905517578125,-145.83328247070312,539.316650390625L-145.83328247070312,553.5C-145.83328247070312,555.1958618164062,-146.40444946289062,556.6475219726562,-147.54684448242188,557.8551635742188C-148.68923950195312,559.0628051757812,-150.06246948242188,559.6666259765625,-151.66665649414062,559.6666259765625L-198.33328247070312,559.6666259765625C-199.93746948242188,559.6666259765625,-201.31076049804688,559.0628051757812,-202.45309448242188,557.8551635742188C-203.59542846679688,556.6475219726562,-204.16665649414062,555.1958618164062,-204.16665649414062,553.5L-204.16665649414062,539.316650390625C-204.16665649414062,538.905517578125,-204.13015747070312,538.494384765625,-204.05728149414062,538.0833129882812C-203.98434448242188,537.6721801757812,-203.87496948242188,537.2611083984375,-203.72915649414062,536.8499755859375L-196.87496948242188,520.2000122070312C-196.43746948242188,519.120849609375,-195.74478149414062,518.234375,-194.79684448242188,517.5406494140625C-193.84890747070312,516.846923828125,-192.79165649414062,516.5,-191.62496948242188,516.5L-189.58328247070312,516.5ZM-183.74996948242188,516.5L-166.24996948242188,516.5L-166.24996948242188,513.4166259765625L-183.74996948242188,513.4166259765625L-183.74996948242188,516.5ZM-189.58328247070312,535L-189.58328247070312,531.9166259765625L-183.74996948242188,531.9166259765625L-183.74996948242188,535L-166.24996948242188,535L-166.24996948242188,531.9166259765625L-160.41665649414062,531.9166259765625L-160.41665649414062,535L-153.41665649414062,535L-158.37496948242188,522.6666259765625L-191.62496948242188,522.6666259765625L-196.58328247070312,535L-189.58328247070312,535ZM-189.58328247070312,541.1666870117188L-198.33328247070312,541.1666870117188L-198.33328247070312,553.5L-151.66665649414062,553.5L-151.66665649414062,541.1666870117188L-160.41665649414062,541.1666870117188L-160.41665649414062,544.25L-166.24996948242188,544.25L-166.24996948242188,541.1666870117188L-183.74996948242188,541.1666870117188L-183.74996948242188,544.25L-189.58328247070312,544.25L-189.58328247070312,541.1666870117188ZM-174.99996948242188,538.0833129882812ZM-174.99996948242188,535ZM-174.99996948242188,541.1666870117188Z" style="fill: rgb(227, 227, 227);"/></g></g></svg>