<svg width="90" xmlns="http://www.w3.org/2000/svg" height="90" id="screenshot-e266ac79-4f7e-805f-8006-a77f775d9c4d" viewBox="0 0 90 90" xmlns:xlink="http://www.w3.org/1999/xlink" fill="none" version="1.1"><g id="shape-e266ac79-4f7e-805f-8006-a77f775d9c4d" height="24" width="24" rx="0" ry="0" style="fill: rgb(0, 0, 0);"><g id="shape-e266ac79-4f7e-805f-8006-a77f775e5fc3" style="display: none;"><g class="fills" id="fills-e266ac79-4f7e-805f-8006-a77f775e5fc3"><rect width="90" height="90" x="0" transform="matrix(1.000000, 0.000000, 0.000000, 1.000000, 0.000000, 0.000000)" style="fill: rgb(162, 89, 41); fill-opacity: 1;" ry="0" fill="none" rx="0" y="0"/></g></g><g id="shape-e266ac79-4f7e-805f-8006-a77f775fedab"><g class="fills" id="fills-e266ac79-4f7e-805f-8006-a77f775fedab"><path d="M3.9375,78.75L3.9375,68.25C3.9375,66.1875,4.46875,64.25,5.53125,62.4375C6.59375,60.625,8.0625,59.25,9.9375,58.3125C13.125,56.6875,16.71875,55.3125,20.71875,54.1875C24.71875,53.0625,29.125,52.5,33.9375,52.5C38.75,52.5,43.15625,53.0625,47.15625,54.1875C51.15625,55.3125,54.75,56.6875,57.9375,58.3125C59.8125,59.25,61.28125,60.625,62.34375,62.4375C63.40625,64.25,63.9375,66.1875,63.9375,68.25L63.9375,78.75L3.9375,78.75ZM11.4375,71.25L56.4375,71.25L56.4375,68.25C56.4375,67.5625,56.265625,66.9375,55.921875,66.375C55.578125,65.8125,55.125,65.375,54.5625,65.0625C52.3125,63.9375,49.421875,62.8125,45.890625,61.6875C42.359375,60.5625,38.375,60,33.9375,60C29.5,60,25.515625,60.5625,21.984375,61.6875C18.453125,62.8125,15.5625,63.9375,13.3125,65.0625C12.75,65.375,12.296875,65.8125,11.953125,66.375C11.609375,66.9375,11.4375,67.5625,11.4375,68.25L11.4375,71.25ZM33.9375,48.75C29.8125,48.75,26.28125,47.28125,23.34375,44.34375C20.40625,41.40625,18.9375,37.875,18.9375,33.75L18,33.75C17.4375,33.75,16.984375,33.578125,16.640625,33.234375C16.296875,32.890625,16.125,32.4375,16.125,31.875C16.125,31.3125,16.296875,30.859375,16.640625,30.515625C16.984375,30.171875,17.4375,30,18,30L18.9375,30C18.9375,27.1875,19.625,24.65625,21,22.40625C22.375,20.15625,24.1875,18.375,26.4375,17.0625L26.4375,20.625C26.4375,21.1875,26.609375,21.640625,26.953125,21.984375C27.296875,22.328125,27.75,22.5,28.3125,22.5C28.875,22.5,29.328125,22.328125,29.671875,21.984375C30.015625,21.640625,30.1875,21.1875,30.1875,20.625L30.1875,15.5625C30.75,15.375,31.34375,15.234375,31.96875,15.140625C32.59375,15.046875,33.25,15,33.9375,15C34.625,15,35.28125,15.046875,35.90625,15.140625C36.53125,15.234375,37.125,15.375,37.6875,15.5625L37.6875,20.625C37.6875,21.1875,37.859375,21.640625,38.203125,21.984375C38.546875,22.328125,39,22.5,39.5625,22.5C40.125,22.5,40.578125,22.328125,40.921875,21.984375C41.265625,21.640625,41.4375,21.1875,41.4375,20.625L41.4375,17.0625C43.6875,18.375,45.5,20.15625,46.875,22.40625C48.25,24.65625,48.9375,27.1875,48.9375,30L49.875,30C50.4375,30,50.890625,30.171875,51.234375,30.515625C51.578125,30.859375,51.75,31.3125,51.75,31.875C51.75,32.4375,51.578125,32.890625,51.234375,33.234375C50.890625,33.578125,50.4375,33.75,49.875,33.75L48.9375,33.75C48.9375,37.875,47.46875,41.40625,44.53125,44.34375C41.59375,47.28125,38.0625,48.75,33.9375,48.75ZM33.9375,41.25C36,41.25,37.765625,40.515625,39.234375,39.046875C40.703125,37.578125,41.4375,35.8125,41.4375,33.75L26.4375,33.75C26.4375,35.8125,27.171875,37.578125,28.640625,39.046875C30.109375,40.515625,31.875,41.25,33.9375,41.25ZM62.0625,56.25L61.5,53.4375C61.125,53.3125,60.765625,53.171875,60.421875,53.015625C60.078125,52.859375,59.75,52.625,59.4375,52.3125L56.8125,53.25L54.9375,49.875L57,48L57,45.75L54.9375,43.875L56.8125,40.5L59.4375,41.4375C59.6875,41.1875,60,40.96875,60.375,40.78125C60.75,40.59375,61.125,40.4375,61.5,40.3125L62.0625,37.5L65.8125,37.5L66.375,40.3125C66.75,40.4375,67.125,40.59375,67.5,40.78125C67.875,40.96875,68.1875,41.1875,68.4375,41.4375L71.0625,40.5L72.9375,43.875L70.875,45.75L70.875,48L72.9375,49.875L71.0625,53.25L68.4375,52.3125C68.125,52.625,67.796875,52.859375,67.453125,53.015625C67.109375,53.171875,66.75,53.3125,66.375,53.4375L65.8125,56.25L62.0625,56.25ZM63.9375,49.6875C64.6875,49.6875,65.34375,49.40625,65.90625,48.84375C66.46875,48.28125,66.75,47.625,66.75,46.875C66.75,46.125,66.46875,45.46875,65.90625,44.90625C65.34375,44.34375,64.6875,44.0625,63.9375,44.0625C63.1875,44.0625,62.53125,44.34375,61.96875,44.90625C61.40625,45.46875,61.125,46.125,61.125,46.875C61.125,47.625,61.40625,48.28125,61.96875,48.84375C62.53125,49.40625,63.1875,49.6875,63.9375,49.6875ZM70.6875,37.5L69.9375,33.5625C69.375,33.375,68.859375,33.140625,68.390625,32.859375C67.921875,32.578125,67.5,32.25,67.125,31.875L63.1875,33.1875L60.5625,28.6875L63.75,25.875C63.625,25.5625,63.5625,25.3125,63.5625,25.125L63.5625,23.625C63.5625,23.4375,63.625,23.1875,63.75,22.875L60.5625,20.0625L63.1875,15.5625L67.125,16.875C67.5,16.5,67.921875,16.171875,68.390625,15.890625C68.859375,15.609375,69.375,15.375,69.9375,15.1875L70.6875,11.25L75.9375,11.25L76.6875,15.1875C77.25,15.375,77.765625,15.609375,78.234375,15.890625C78.703125,16.171875,79.125,16.5,79.5,16.875L83.4375,15.5625L86.0625,20.0625L82.875,22.875C83,23.1875,83.0625,23.4375,83.0625,23.625L83.0625,25.125C83.0625,25.3125,83,25.5625,82.875,25.875L86.0625,28.6875L83.4375,33.1875L79.5,31.875C79.125,32.25,78.703125,32.578125,78.234375,32.859375C77.765625,33.140625,77.25,33.375,76.6875,33.5625L75.9375,37.5L70.6875,37.5ZM73.3125,29.0625C74.625,29.0625,75.734375,28.609375,76.640625,27.703125C77.546875,26.796875,78,25.6875,78,24.375C78,23.0625,77.546875,21.953125,76.640625,21.046875C75.734375,20.140625,74.625,19.6875,73.3125,19.6875C72,19.6875,70.890625,20.140625,69.984375,21.046875C69.078125,21.953125,68.625,23.0625,68.625,24.375C68.625,25.6875,69.078125,26.796875,69.984375,27.703125C70.890625,28.609375,72,29.0625,73.3125,29.0625ZM33.9375,71.25Z" style="fill: rgb(162, 89, 41); fill-opacity: 1;"/></g></g></g></svg>