<svg width="52.5" xmlns="http://www.w3.org/2000/svg" height="55.5" id="screenshot-e266ac79-4f7e-805f-8006-a77781a17a0f" viewBox="-202.25 805.25 52.5 55.5" xmlns:xlink="http://www.w3.org/1999/xlink" fill="none" version="1.1"><g id="shape-e266ac79-4f7e-805f-8006-a77781a17a0f"><g class="fills" id="fills-e266ac79-4f7e-805f-8006-a77781a17a0f"><path d="M-202.24996948242188,860.7500610351562L-202.24996948242188,854.5833129882812L-196.41665649414062,848.4166259765625L-196.41665649414062,860.7500610351562L-202.24996948242188,860.7500610351562ZM-190.58328247070312,860.7500610351562L-190.58328247070312,842.25L-184.74996948242188,836.0833740234375L-184.74996948242188,860.7500610351562L-190.58328247070312,860.7500610351562ZM-178.91665649414062,860.7500610351562L-178.91665649414062,836.0833740234375L-173.08328247070312,842.3270263671875L-173.08328247070312,860.7500610351562L-178.91665649414062,860.7500610351562ZM-167.24996948242188,860.7500610351562L-167.24996948242188,842.3270263671875L-161.41665649414062,836.1603393554688L-161.41665649414062,860.7500610351562L-167.24996948242188,860.7500610351562ZM-155.58328247070312,860.7500610351562L-155.58328247070312,829.9166259765625L-149.74996948242188,823.75L-149.74996948242188,860.7500610351562L-155.58328247070312,860.7500610351562ZM-202.24996948242188,844.7938232421875L-202.24996948242188,836.0833740234375L-181.83328247070312,814.5L-170.16665649414062,826.8333740234375L-149.74996948242188,805.2500610351562L-149.74996948242188,813.9603881835938L-170.16665649414062,835.5437622070312L-181.83328247070312,823.21044921875L-202.24996948242188,844.7938232421875Z" style="fill: rgb(227, 227, 227);"/></g></g></svg>