<svg width="55.417" xmlns="http://www.w3.org/2000/svg" height="61.667" id="screenshot-e266ac79-4f7e-805f-8006-a77781a17a13" viewBox="-202.333 606.167 55.417 61.667" xmlns:xlink="http://www.w3.org/1999/xlink" fill="none" version="1.1"><g id="shape-e266ac79-4f7e-805f-8006-a77781a17a13"><g class="fills" id="fills-e266ac79-4f7e-805f-8006-a77781a17a13"><path d="M-161.49996948242188,640.0833740234375L-165.58328247070312,635.7666015625L-159.31246948242188,629.1375732421875C-161.40274047851562,628.7264404296875,-164.74478149414062,628.9575805664062,-169.33853149414062,629.8312377929688C-173.93228149414062,630.7048950195312,-179.09719848632812,634.0964965820312,-184.83328247070312,640.0062255859375C-183.27774047851562,633.9937744140625,-180.14230346679688,629.1632080078125,-175.42703247070312,625.5146484375C-170.71176147460938,621.865966796875,-165.38882446289062,620.0416259765625,-159.45828247070312,620.0416259765625L-165.58328247070312,613.566650390625L-161.49996948242188,609.25L-146.91665649414062,624.6666259765625L-161.49996948242188,640.0833740234375ZM-178.99996948242188,667.8333740234375C-186.82638549804688,660.7930908203125,-192.67184448242188,654.2537841796875,-196.53640747070312,648.2156982421875C-200.40103149414062,642.177490234375,-202.33328247070312,636.5888671875,-202.33328247070312,631.449951171875C-202.33328247070312,624.461181640625,-200.07290649414062,618.5,-195.55203247070312,613.566650390625C-191.03121948242188,608.63330078125,-185.51388549804688,606.1666259765625,-178.99996948242188,606.1666259765625C-177.29855346679688,606.1666259765625,-175.59719848632812,606.359375,-173.89578247070312,606.7447509765625C-172.19442749023438,607.1302490234375,-170.56594848632812,607.7083740234375,-169.01040649414062,608.4791259765625L-173.53121948242188,613.2583618164062C-174.40621948242188,612.9500122070312,-175.30551147460938,612.71875,-176.22915649414062,612.5645751953125C-177.15274047851562,612.410400390625,-178.07638549804688,612.3333740234375,-178.99996948242188,612.3333740234375C-183.90969848632812,612.3333740234375,-188.05380249023438,614.1961669921875,-191.43228149414062,617.921875C-194.81076049804688,621.6475830078125,-196.49996948242188,626.156982421875,-196.49996948242188,631.449951171875C-196.49996948242188,635.0986328125,-195.06594848632812,639.2611694335938,-192.19790649414062,643.9375C-189.32980346679688,648.6138305664062,-184.93051147460938,653.8298950195312,-178.99996948242188,659.5853881835938C-176.08328247070312,656.759033203125,-173.53121948242188,654.0611572265625,-171.34371948242188,651.49169921875C-169.15621948242188,648.9222412109375,-167.35757446289062,646.45556640625,-165.94790649414062,644.0916137695312L-161.71871948242188,648.5625C-163.66317749023438,651.594482421875,-166.06942749023438,654.7034912109375,-168.93746948242188,657.8896484375C-171.80551147460938,661.0756225585938,-175.15969848632812,664.3902587890625,-178.99996948242188,667.8333740234375Z" style="fill: rgb(227, 227, 227);"/></g></g></svg>